<mxfile host="Electron" agent="Mozilla/5.0 (Windows NT 10.0; Win64; x64) AppleWebKit/537.36 (KHTML, like Gecko) draw.io/28.0.6 Chrome/138.0.7204.100 Electron/37.2.3 Safari/537.36" version="28.0.6">
  <diagram name="Page-1" id="6HI93rbps6Md4ENDGyHG">
    <mxGraphModel dx="1042" dy="1822" grid="1" gridSize="10" guides="1" tooltips="1" connect="1" arrows="1" fold="1" page="1" pageScale="1" pageWidth="850" pageHeight="1100" math="0" shadow="0">
      <root>
        <mxCell id="0" />
        <mxCell id="1" parent="0" />
        <mxCell id="KPNOztLyjLwDEyQZrxx6-13" style="edgeStyle=orthogonalEdgeStyle;rounded=0;orthogonalLoop=1;jettySize=auto;html=1;entryX=0.5;entryY=0;entryDx=0;entryDy=0;" edge="1" parent="1" source="KPNOztLyjLwDEyQZrxx6-1" target="KPNOztLyjLwDEyQZrxx6-2">
          <mxGeometry relative="1" as="geometry" />
        </mxCell>
        <mxCell id="KPNOztLyjLwDEyQZrxx6-1" value="start" style="strokeWidth=2;html=1;shape=mxgraph.flowchart.terminator;whiteSpace=wrap;" vertex="1" parent="1">
          <mxGeometry x="60" width="100" height="60" as="geometry" />
        </mxCell>
        <mxCell id="KPNOztLyjLwDEyQZrxx6-14" style="edgeStyle=orthogonalEdgeStyle;rounded=0;orthogonalLoop=1;jettySize=auto;html=1;entryX=0.5;entryY=0;entryDx=0;entryDy=0;" edge="1" parent="1" source="KPNOztLyjLwDEyQZrxx6-2" target="KPNOztLyjLwDEyQZrxx6-4">
          <mxGeometry relative="1" as="geometry" />
        </mxCell>
        <mxCell id="KPNOztLyjLwDEyQZrxx6-2" value="Declarations&lt;div&gt;&amp;nbsp; &amp;nbsp;num randomNumber&lt;/div&gt;&lt;div&gt;&amp;nbsp; &amp;nbsp;num myNumbers[20]&lt;/div&gt;&lt;div&gt;&amp;nbsp; &amp;nbsp;num myNumbers[randomNumber] = 0&lt;/div&gt;" style="rounded=0;whiteSpace=wrap;html=1;align=left;" vertex="1" parent="1">
          <mxGeometry y="80" width="220" height="80" as="geometry" />
        </mxCell>
        <mxCell id="KPNOztLyjLwDEyQZrxx6-16" style="edgeStyle=orthogonalEdgeStyle;rounded=0;orthogonalLoop=1;jettySize=auto;html=1;entryX=0.5;entryY=0;entryDx=0;entryDy=0;" edge="1" parent="1" source="KPNOztLyjLwDEyQZrxx6-3" target="KPNOztLyjLwDEyQZrxx6-15">
          <mxGeometry relative="1" as="geometry" />
        </mxCell>
        <mxCell id="KPNOztLyjLwDEyQZrxx6-3" value="housekeeping()" style="rounded=0;whiteSpace=wrap;html=1;" vertex="1" parent="1">
          <mxGeometry x="50" y="190" width="120" height="60" as="geometry" />
        </mxCell>
        <mxCell id="KPNOztLyjLwDEyQZrxx6-4" value="" style="rounded=0;whiteSpace=wrap;html=1;" vertex="1" parent="1">
          <mxGeometry x="50" y="180" width="120" height="10" as="geometry" />
        </mxCell>
        <mxCell id="KPNOztLyjLwDEyQZrxx6-10" style="edgeStyle=orthogonalEdgeStyle;rounded=0;orthogonalLoop=1;jettySize=auto;html=1;entryX=0.5;entryY=0;entryDx=0;entryDy=0;" edge="1" parent="1" source="KPNOztLyjLwDEyQZrxx6-6" target="KPNOztLyjLwDEyQZrxx6-7">
          <mxGeometry relative="1" as="geometry" />
        </mxCell>
        <mxCell id="KPNOztLyjLwDEyQZrxx6-6" value="housekeeping()" style="strokeWidth=2;html=1;shape=mxgraph.flowchart.terminator;whiteSpace=wrap;" vertex="1" parent="1">
          <mxGeometry x="490" y="30" width="100" height="60" as="geometry" />
        </mxCell>
        <mxCell id="KPNOztLyjLwDEyQZrxx6-11" style="edgeStyle=orthogonalEdgeStyle;rounded=0;orthogonalLoop=1;jettySize=auto;html=1;entryX=0.5;entryY=0;entryDx=0;entryDy=0;" edge="1" parent="1" source="KPNOztLyjLwDEyQZrxx6-7" target="KPNOztLyjLwDEyQZrxx6-8">
          <mxGeometry relative="1" as="geometry" />
        </mxCell>
        <mxCell id="KPNOztLyjLwDEyQZrxx6-7" value="output &quot;Enter a number...&quot;" style="shape=parallelogram;perimeter=parallelogramPerimeter;whiteSpace=wrap;html=1;fixedSize=1;" vertex="1" parent="1">
          <mxGeometry x="450" y="110" width="180" height="30" as="geometry" />
        </mxCell>
        <mxCell id="KPNOztLyjLwDEyQZrxx6-8" value="input randomNumber" style="shape=parallelogram;perimeter=parallelogramPerimeter;whiteSpace=wrap;html=1;fixedSize=1;" vertex="1" parent="1">
          <mxGeometry x="465" y="160" width="150" height="30" as="geometry" />
        </mxCell>
        <mxCell id="KPNOztLyjLwDEyQZrxx6-9" value="return" style="strokeWidth=2;html=1;shape=mxgraph.flowchart.terminator;whiteSpace=wrap;" vertex="1" parent="1">
          <mxGeometry x="490" y="210" width="100" height="60" as="geometry" />
        </mxCell>
        <mxCell id="KPNOztLyjLwDEyQZrxx6-12" style="edgeStyle=orthogonalEdgeStyle;rounded=0;orthogonalLoop=1;jettySize=auto;html=1;entryX=0.5;entryY=0;entryDx=0;entryDy=0;entryPerimeter=0;" edge="1" parent="1" source="KPNOztLyjLwDEyQZrxx6-8" target="KPNOztLyjLwDEyQZrxx6-9">
          <mxGeometry relative="1" as="geometry" />
        </mxCell>
        <mxCell id="KPNOztLyjLwDEyQZrxx6-29" style="edgeStyle=orthogonalEdgeStyle;rounded=0;orthogonalLoop=1;jettySize=auto;html=1;entryX=0;entryY=0.5;entryDx=0;entryDy=0;" edge="1" parent="1" source="KPNOztLyjLwDEyQZrxx6-15" target="KPNOztLyjLwDEyQZrxx6-18">
          <mxGeometry relative="1" as="geometry" />
        </mxCell>
        <mxCell id="KPNOztLyjLwDEyQZrxx6-34" style="edgeStyle=orthogonalEdgeStyle;rounded=0;orthogonalLoop=1;jettySize=auto;html=1;entryX=0.5;entryY=0;entryDx=0;entryDy=0;" edge="1" parent="1" target="KPNOztLyjLwDEyQZrxx6-32">
          <mxGeometry relative="1" as="geometry">
            <mxPoint x="110" y="490" as="sourcePoint" />
          </mxGeometry>
        </mxCell>
        <mxCell id="KPNOztLyjLwDEyQZrxx6-48" style="edgeStyle=orthogonalEdgeStyle;rounded=0;orthogonalLoop=1;jettySize=auto;html=1;entryX=0.5;entryY=0;entryDx=0;entryDy=0;" edge="1" parent="1" source="KPNOztLyjLwDEyQZrxx6-15" target="KPNOztLyjLwDEyQZrxx6-32">
          <mxGeometry relative="1" as="geometry" />
        </mxCell>
        <mxCell id="KPNOztLyjLwDEyQZrxx6-15" value="myNumber[randomNumber]&lt;div&gt;&amp;lt;&amp;gt; 0?&lt;/div&gt;" style="rhombus;whiteSpace=wrap;html=1;" vertex="1" parent="1">
          <mxGeometry x="25" y="290" width="170" height="180" as="geometry" />
        </mxCell>
        <mxCell id="KPNOztLyjLwDEyQZrxx6-17" value="" style="rounded=0;whiteSpace=wrap;html=1;" vertex="1" parent="1">
          <mxGeometry x="250" y="340" width="120" height="10" as="geometry" />
        </mxCell>
        <mxCell id="KPNOztLyjLwDEyQZrxx6-18" value="countNumbers()" style="rounded=0;whiteSpace=wrap;html=1;" vertex="1" parent="1">
          <mxGeometry x="250" y="350" width="120" height="60" as="geometry" />
        </mxCell>
        <mxCell id="KPNOztLyjLwDEyQZrxx6-25" style="edgeStyle=orthogonalEdgeStyle;rounded=0;orthogonalLoop=1;jettySize=auto;html=1;entryX=0.5;entryY=0;entryDx=0;entryDy=0;" edge="1" parent="1" source="KPNOztLyjLwDEyQZrxx6-20" target="KPNOztLyjLwDEyQZrxx6-21">
          <mxGeometry relative="1" as="geometry" />
        </mxCell>
        <mxCell id="KPNOztLyjLwDEyQZrxx6-20" value="countNumbers()" style="strokeWidth=2;html=1;shape=mxgraph.flowchart.terminator;whiteSpace=wrap;" vertex="1" parent="1">
          <mxGeometry x="645" y="250" width="100" height="60" as="geometry" />
        </mxCell>
        <mxCell id="KPNOztLyjLwDEyQZrxx6-26" style="edgeStyle=orthogonalEdgeStyle;rounded=0;orthogonalLoop=1;jettySize=auto;html=1;entryX=0.5;entryY=0;entryDx=0;entryDy=0;" edge="1" parent="1" source="KPNOztLyjLwDEyQZrxx6-21" target="KPNOztLyjLwDEyQZrxx6-22">
          <mxGeometry relative="1" as="geometry" />
        </mxCell>
        <mxCell id="KPNOztLyjLwDEyQZrxx6-21" value="myNumbers[randomNumber] =&amp;nbsp;&lt;div&gt;myNumbers[randomNumber] + 1&lt;/div&gt;" style="rounded=0;whiteSpace=wrap;html=1;align=center;" vertex="1" parent="1">
          <mxGeometry x="590" y="330" width="210" height="65" as="geometry" />
        </mxCell>
        <mxCell id="KPNOztLyjLwDEyQZrxx6-27" style="edgeStyle=orthogonalEdgeStyle;rounded=0;orthogonalLoop=1;jettySize=auto;html=1;entryX=0.5;entryY=0;entryDx=0;entryDy=0;" edge="1" parent="1" source="KPNOztLyjLwDEyQZrxx6-22" target="KPNOztLyjLwDEyQZrxx6-23">
          <mxGeometry relative="1" as="geometry" />
        </mxCell>
        <mxCell id="KPNOztLyjLwDEyQZrxx6-22" value="output &quot;Enter a number...&quot;" style="shape=parallelogram;perimeter=parallelogramPerimeter;whiteSpace=wrap;html=1;fixedSize=1;" vertex="1" parent="1">
          <mxGeometry x="605" y="410" width="180" height="30" as="geometry" />
        </mxCell>
        <mxCell id="KPNOztLyjLwDEyQZrxx6-23" value="input randomNumber" style="shape=parallelogram;perimeter=parallelogramPerimeter;whiteSpace=wrap;html=1;fixedSize=1;" vertex="1" parent="1">
          <mxGeometry x="620" y="460" width="150" height="30" as="geometry" />
        </mxCell>
        <mxCell id="KPNOztLyjLwDEyQZrxx6-24" value="return" style="strokeWidth=2;html=1;shape=mxgraph.flowchart.terminator;whiteSpace=wrap;" vertex="1" parent="1">
          <mxGeometry x="645" y="510" width="100" height="60" as="geometry" />
        </mxCell>
        <mxCell id="KPNOztLyjLwDEyQZrxx6-28" style="edgeStyle=orthogonalEdgeStyle;rounded=0;orthogonalLoop=1;jettySize=auto;html=1;entryX=0.5;entryY=0;entryDx=0;entryDy=0;entryPerimeter=0;" edge="1" parent="1" source="KPNOztLyjLwDEyQZrxx6-23" target="KPNOztLyjLwDEyQZrxx6-24">
          <mxGeometry relative="1" as="geometry" />
        </mxCell>
        <mxCell id="KPNOztLyjLwDEyQZrxx6-30" value="" style="edgeStyle=elbowEdgeStyle;elbow=horizontal;endArrow=classic;html=1;curved=0;rounded=0;endSize=8;startSize=8;exitX=1;exitY=0.5;exitDx=0;exitDy=0;" edge="1" parent="1" source="KPNOztLyjLwDEyQZrxx6-18">
          <mxGeometry width="50" height="50" relative="1" as="geometry">
            <mxPoint x="390" y="350" as="sourcePoint" />
            <mxPoint x="110" y="270" as="targetPoint" />
            <Array as="points">
              <mxPoint x="410" y="320" />
            </Array>
          </mxGeometry>
        </mxCell>
        <mxCell id="KPNOztLyjLwDEyQZrxx6-31" value="endOfJob()" style="rounded=0;whiteSpace=wrap;html=1;" vertex="1" parent="1">
          <mxGeometry x="50" y="520" width="120" height="60" as="geometry" />
        </mxCell>
        <mxCell id="KPNOztLyjLwDEyQZrxx6-32" value="" style="rounded=0;whiteSpace=wrap;html=1;" vertex="1" parent="1">
          <mxGeometry x="50" y="510" width="120" height="10" as="geometry" />
        </mxCell>
        <mxCell id="KPNOztLyjLwDEyQZrxx6-35" value="stop" style="strokeWidth=2;html=1;shape=mxgraph.flowchart.terminator;whiteSpace=wrap;" vertex="1" parent="1">
          <mxGeometry x="60" y="600" width="100" height="60" as="geometry" />
        </mxCell>
        <mxCell id="KPNOztLyjLwDEyQZrxx6-36" style="edgeStyle=orthogonalEdgeStyle;rounded=0;orthogonalLoop=1;jettySize=auto;html=1;entryX=0.5;entryY=0;entryDx=0;entryDy=0;entryPerimeter=0;" edge="1" parent="1" source="KPNOztLyjLwDEyQZrxx6-31" target="KPNOztLyjLwDEyQZrxx6-35">
          <mxGeometry relative="1" as="geometry" />
        </mxCell>
        <mxCell id="KPNOztLyjLwDEyQZrxx6-42" style="edgeStyle=orthogonalEdgeStyle;rounded=0;orthogonalLoop=1;jettySize=auto;html=1;entryX=0.5;entryY=0;entryDx=0;entryDy=0;" edge="1" parent="1" source="KPNOztLyjLwDEyQZrxx6-37" target="KPNOztLyjLwDEyQZrxx6-38">
          <mxGeometry relative="1" as="geometry" />
        </mxCell>
        <mxCell id="KPNOztLyjLwDEyQZrxx6-37" value="endOfJob()" style="strokeWidth=2;html=1;shape=mxgraph.flowchart.terminator;whiteSpace=wrap;" vertex="1" parent="1">
          <mxGeometry x="453.75" y="440" width="100" height="60" as="geometry" />
        </mxCell>
        <mxCell id="KPNOztLyjLwDEyQZrxx6-44" style="edgeStyle=orthogonalEdgeStyle;rounded=0;orthogonalLoop=1;jettySize=auto;html=1;" edge="1" parent="1" source="KPNOztLyjLwDEyQZrxx6-38" target="KPNOztLyjLwDEyQZrxx6-43">
          <mxGeometry relative="1" as="geometry" />
        </mxCell>
        <mxCell id="KPNOztLyjLwDEyQZrxx6-38" value="output myNumbers[19],&lt;div&gt;myNumbers[18],&lt;/div&gt;&lt;div&gt;myNumbers[...],&lt;/div&gt;&lt;div&gt;myNumbers[1],&lt;/div&gt;&lt;div&gt;myNumbers[0]&lt;/div&gt;" style="shape=parallelogram;perimeter=parallelogramPerimeter;whiteSpace=wrap;html=1;fixedSize=1;" vertex="1" parent="1">
          <mxGeometry x="417.5" y="520" width="172.5" height="90" as="geometry" />
        </mxCell>
        <mxCell id="KPNOztLyjLwDEyQZrxx6-43" value="return" style="strokeWidth=2;html=1;shape=mxgraph.flowchart.terminator;whiteSpace=wrap;" vertex="1" parent="1">
          <mxGeometry x="453.75" y="630" width="100" height="60" as="geometry" />
        </mxCell>
        <mxCell id="KPNOztLyjLwDEyQZrxx6-46" value="YES" style="text;html=1;align=center;verticalAlign=middle;resizable=0;points=[];autosize=1;strokeColor=none;fillColor=none;fontStyle=1" vertex="1" parent="1">
          <mxGeometry x="195" y="347.5" width="50" height="30" as="geometry" />
        </mxCell>
        <mxCell id="KPNOztLyjLwDEyQZrxx6-47" value="NO" style="text;html=1;align=center;verticalAlign=middle;resizable=0;points=[];autosize=1;strokeColor=none;fillColor=none;fontStyle=1" vertex="1" parent="1">
          <mxGeometry x="110" y="470" width="40" height="30" as="geometry" />
        </mxCell>
      </root>
    </mxGraphModel>
  </diagram>
</mxfile>
